<svg width="20" height="20" viewBox="0 0 20 20" fill="none" xmlns="http://www.w3.org/2000/svg">
<g clip-path="url(#clip0_154_4489)">
<path d="M10 19.2188C15.0914 19.2188 19.2188 15.0914 19.2188 10C19.2188 4.90862 15.0914 0.78125 10 0.78125C4.90862 0.78125 0.78125 4.90862 0.78125 10C0.78125 15.0914 4.90862 19.2188 10 19.2188Z" fill="#EBE5FF"/>
<path fill-rule="evenodd" clip-rule="evenodd" d="M14.4346 11.6425C14.959 11.26 15.2696 10.6493 15.2696 9.99997C15.2696 9.3506 14.959 8.73997 14.4346 8.35747L9.12398 4.4856C8.3696 3.9356 7.33335 3.9881 6.63835 4.61122C5.94335 5.23497 5.77898 6.25935 6.24335 7.06872L7.72523 9.64935C7.85023 9.86622 7.85023 10.1337 7.72523 10.3506L6.24335 12.9312C5.77898 13.7406 5.94335 14.765 6.63835 15.3887C7.33335 16.0118 8.3696 16.0643 9.12398 15.5143L14.4346 11.6425Z" fill="#A68BFF"/>
<path fill-rule="evenodd" clip-rule="evenodd" d="M14.4346 11.6425C14.959 11.26 15.2696 10.6493 15.2696 9.99997C15.2696 9.3506 14.959 8.73997 14.4346 8.35747L9.12398 4.4856C8.3696 3.9356 7.33335 3.9881 6.63835 4.61122C5.94335 5.23497 5.77898 6.25935 6.24335 7.06872L7.72523 9.64935C7.85023 9.86622 7.85023 10.1337 7.72523 10.3506L6.24335 12.9312C5.77898 13.7406 5.94335 14.765 6.63835 15.3887C7.33335 16.0118 8.3696 16.0643 9.12398 15.5143L14.4346 11.6425ZM13.8821 10.885L8.5721 14.7568C8.17523 15.0462 7.6296 15.0187 7.26398 14.6906C6.89835 14.3625 6.8121 13.8237 7.05648 13.3981L8.53835 10.8175C8.82898 10.3112 8.82898 9.68872 8.53835 9.18247L7.05648 6.60185C6.8121 6.17622 6.89835 5.63747 7.26398 5.30935C7.6296 4.98122 8.17523 4.95372 8.5721 5.2431L13.8821 9.11497C14.1646 9.32122 14.3321 9.64997 14.3321 9.99997C14.3321 10.35 14.1646 10.6787 13.8821 10.885Z" fill="#37474F"/>
<path fill-rule="evenodd" clip-rule="evenodd" d="M10 0C4.48068 0 0 4.48068 0 10C0 15.5193 4.48068 20 10 20C15.5193 20 20 15.5193 20 10C20 4.48068 15.5193 0 10 0ZM10 1.01695C14.958 1.01695 18.9831 5.04203 18.9831 10C18.9831 14.958 14.958 18.9831 10 18.9831C5.04203 18.9831 1.01695 14.958 1.01695 10C1.01695 5.04203 5.04203 1.01695 10 1.01695Z" fill="#37474F"/>
</g>
<defs>
<clipPath id="clip0_154_4489">
<rect width="20" height="20" fill="white"/>
</clipPath>
</defs>
</svg>
